# xmcd
#
# Track frame offsets:
#	225
#	21127
#	42080
#	61110
#	79152
#	95260
#	109227
#	135024
#	136752
#	148350
#	168312
#	183817
#
# Disc length: 2695 seconds
#
# Revision: 0
# Processed by: cddbd v1.4PL0 Copyright (c) Steve Scherf et al.
# Submitted via: dBpowerAMP V4.0
#
DISCID=930a840c
DTITLE=Various Artist - Down From the Mountian
DYEAR=1900
DGENRE=Bluegrass
TTITLE0=Holly Hunter - Introduction - Fairfield Four - 'Po Lazarus
TTITLE1=John Hartford - Big Rock Candy Mountian
TTITLE2=Alison Krauss and Union Station, featuring Dan Tyminski - Wild Bill Jones
TTITLE3=Allison Krauss and Union Station - Blue and Lonesome
TTITLE4=The Cox Family - I Am Weary (Let Me Rest)
TTITLE5=The Cox Family - Will There Be Any Stars In My Crown
TTITLE6=Gillian Welch and David Rawlings - Dear Someone
TTITLE7=Gilliam Walch and David Rawlings - I Want To SingThat Rock And Roll
TTITLE8=The Whites - Sandy Land
TTITLE9=Chris Thomas King with Colin Linden - John Law3 Burned Down The Liquor Sto'
TTITLE10=Emmylou Harris - Green Pastures
TTITLE11=Gillian Welch and Alison Kraus - I'll Fly Away
EXTD=Live Concert performaces by the artists and musicians of O Brother, Where Art Thou?\n\n
EXTT0=
EXTT1=
EXTT2=
EXTT3=
EXTT4=
EXTT5=
EXTT6=
EXTT7=
EXTT8=
EXTT9=
EXTT10=
EXTT11=
PLAYORDER=
